<svg xmlns="http://www.w3.org/2000/svg" viewBox="0 0 512 512" role="img" aria-label="Nunchucks icon">
  <defs>
    <linearGradient id="bg" x1="0" y1="0" x2="1" y2="1">
      <stop offset="0%" stop-color="#0f172a"/>
      <stop offset="100%" stop-color="#1e293b"/>
    </linearGradient>
    <linearGradient id="accent" x1="0" y1="0" x2="1" y2="1">
      <stop offset="0%" stop-color="#38bdf8"/>
      <stop offset="100%" stop-color="#22d3ee"/>
    </linearGradient>
  </defs>

  <rect x="20" y="20" width="472" height="472" rx="96" fill="url(#bg)"/>

  <!-- Code frame -->
  <rect x="92" y="130" width="328" height="252" rx="28" fill="#0b1220" stroke="#334155" stroke-width="10"/>
  <circle cx="126" cy="160" r="8" fill="#ef4444"/>
  <circle cx="150" cy="160" r="8" fill="#f59e0b"/>
  <circle cx="174" cy="160" r="8" fill="#10b981"/>

  <!-- Nun veil / head -->
  <path d="M256 182c-54 0-98 44-98 98v38c0 20 16 36 36 36h124c20 0 36-16 36-36v-38c0-54-44-98-98-98z" fill="#f8fafc"/>
  <path d="M256 146c-38 0-69 31-69 69v24h138v-24c0-38-31-69-69-69z" fill="#0f172a"/>
  <circle cx="256" cy="236" r="26" fill="#f8fafc" stroke="#cbd5e1" stroke-width="6"/>
  <path d="M230 285h52v36h-52z" fill="#f8fafc"/>

  <!-- HTML-ish tag + templating braces -->
  <path d="M126 307l-28-23 28-23" fill="none" stroke="url(#accent)" stroke-width="13" stroke-linecap="round" stroke-linejoin="round"/>
  <path d="M386 261l28 23-28 23" fill="none" stroke="url(#accent)" stroke-width="13" stroke-linecap="round" stroke-linejoin="round"/>
  <path d="M168 408h44m-44 0v-18m44 18v-18m88 18h44m-44 0v-18m44 18v-18" fill="none" stroke="#67e8f9" stroke-width="10" stroke-linecap="round"/>
</svg>
